<!DOCTYPE svg PUBLIC "-//W3C//DTD SVG 1.1//EN" "http://www.w3.org/Graphics/SVG/1.1/DTD/svg11.dtd">
<!-- Uploaded to: SVG Repo, www.svgrepo.com, Transformed by: SVG Repo Mixer Tools -->
<svg height="256px" width="256px" version="1.1" id="_x32_" xmlns="http://www.w3.org/2000/svg" xmlns:xlink="http://www.w3.org/1999/xlink" viewBox="-194.56 -194.56 901.12 901.12" xml:space="preserve" fill="#000000">
<g id="SVGRepo_bgCarrier" stroke-width="0" transform="translate(0,0), scale(1)">
<path transform="translate(-194.56, -194.56), scale(28.16)" d="M16,30.361070489244803C18.438092933772822,30.128683664309015,20.520400505144504,28.725905378721052,22.606084365929874,27.442073760876976C24.64172623377533,26.18904522587979,27.095793214125248,25.14712029391711,28.038839147528,22.9506270225559C28.97132947949605,20.778719306049744,27.644799602000848,18.360255444181448,27.518642610737256,16C27.400313927292366,13.78620339224727,28.263950684969544,11.470556429858739,27.318052498820478,9.465519343103683C26.35234270349568,7.418487238568368,24.274392043051673,6.194070742268426,22.338976589696752,5.020570478655541C20.371711293282374,3.827758702797822,18.287291022973495,2.8504975974608686,16,2.6030456721782684C13.556802878015539,2.3387269538308266,10.861889928185732,2.1956360833071464,8.816389379756796,3.557621423947385C6.78871257569072,4.907738921992234,6.5602626416418275,7.741657727671711,5.223768959920438,9.778340108160457C3.7872917967445425,11.967387290520946,1.0356192367706718,13.410039742188264,0.6515618583985727,15.999999999999996C0.2627861491738056,18.621779173629506,1.802514138940818,21.138256107316945,3.205823229675172,23.386721402406682C4.577826655462754,25.585026899033423,6.349278110524887,27.534456930745808,8.624507499060453,28.774727742470525C10.870750290178895,29.999197408654126,13.453235858593382,30.603815310200403,16,30.361070489244803" fill="#0f8fff" strokewidth="0"/>
</g>
<g id="SVGRepo_tracerCarrier" stroke-linecap="round" stroke-linejoin="round" stroke="#CCCCCC" stroke-width="3.072"/>
<g id="SVGRepo_iconCarrier"> <style type="text/css"> .st0{fill:#000000;} </style> <g> <path class="st0" d="M276.239,252.183c-6.37,2.127-13.165,3.308-20.239,3.308c-7.074,0-13.87-1.181-20.24-3.308 c-46.272,7.599-70.489,41.608-70.489,82.877H256h90.728C346.728,293.791,322.515,259.782,276.239,252.183z"/> <path class="st0" d="M256,240.788c27.43,0,49.658-22.24,49.658-49.666v-14.087c0-27.426-22.228-49.659-49.658-49.659 c-27.43,0-49.658,22.233-49.658,49.659v14.087C206.342,218.548,228.57,240.788,256,240.788z"/> <path class="st0" d="M378.4,0H133.582C86.234,0,47.7,38.542,47.7,85.899v340.22C47.7,473.476,86.234,512,133.582,512h205.695 h13.175l9.318-9.301l93.229-93.229l9.301-9.31v-13.174V85.899C464.3,38.542,425.766,0,378.4,0z M432.497,386.985H384.35 c-24.882,0-45.074,20.183-45.074,45.073v48.139H133.582c-29.866,0-54.078-24.221-54.078-54.078V85.899 c0-29.874,24.212-54.096,54.078-54.096H378.4c29.876,0,54.096,24.222,54.096,54.096V386.985z"/> </g> </g>
</svg>